<svg xmlns="http://www.w3.org/2000/svg" width="18" height="30" viewBox="0 0 18 30"><g><g><g><g><path fill="#60a8db" d="M9.505 27.886A7.269 7.269 0 0 1 4.4 25.812a6.988 6.988 0 0 1-2.114-5.005.49.49 0 0 1 .494-.484.49.49 0 0 1 .494.484c0 1.687.698 3.215 1.825 4.32a6.274 6.274 0 0 0 4.406 1.79.49.49 0 0 1 .494.484.49.49 0 0 1-.494.485zM6.484 0zm0 0c.005.025 1.39 6.851-4.52 15.847C.733 17.717 0 18.966 0 21.337 0 26.123 3.96 30 8.846 30s8.846-3.878 8.846-8.662c0-1.33-.24-2.773-.67-4.026C14.775 10.763 6.513.04 6.483 0z"/></g><g/></g></g></g></svg>